<?xml version="1.0" standalone="no"?>
<!DOCTYPE svg PUBLIC "-//W3C//DTD SVG 20010904//EN"
 "http://www.w3.org/TR/2001/REC-SVG-20010904/DTD/svg10.dtd">
<svg version="1.0" xmlns="http://www.w3.org/2000/svg"
 width="230.000000pt" height="227.000000pt" viewBox="0 0 230.000000 227.000000"
 preserveAspectRatio="xMidYMid meet">

<g transform="translate(0.000000,227.000000) scale(0.100000,-0.100000)"
fill="#000000" stroke="none">
<path d="M2 2213 c1 -42 2 -48 5 -21 2 20 11 42 20 50 13 11 219 13 1109 16
943 2 1099 0 1129 -12 33 -14 35 -14 35 5 0 19 -17 19 -1150 19 l-1150 0 2
-57z"/>
<path d="M2183 2233 c-7 -3 -13 -13 -13 -24 0 -43 -34 -49 -261 -51 -118 0
-225 -5 -239 -10 -39 -14 -110 -96 -110 -128 0 -15 -9 -38 -19 -52 -11 -13
-23 -41 -27 -62 -3 -21 -15 -46 -25 -54 -11 -9 -19 -29 -19 -44 0 -18 -8 -33
-25 -44 -19 -12 -25 -25 -25 -53 0 -44 -21 -77 -42 -68 -9 3 -22 28 -29 56
-13 51 -29 68 -29 32 0 -10 -8 -36 -17 -57 -12 -26 -18 -66 -18 -119 -3 -323
-5 -364 -19 -378 -8 -8 -41 -17 -74 -21 -65 -7 -86 -23 -98 -71 -4 -16 -18
-44 -31 -61 -12 -17 -23 -35 -23 -41 0 -5 -9 -18 -20 -28 -11 -10 -20 -24 -20
-31 0 -7 -11 -25 -24 -41 -13 -15 -26 -37 -30 -49 -3 -12 -18 -26 -31 -32 -31
-14 -32 -26 -3 -46 16 -11 46 -16 104 -16 96 0 94 -2 94 104 0 96 14 116 81
116 36 0 54 -5 69 -20 19 -19 20 -33 20 -289 0 -268 0 -270 -22 -285 -27 -19
-119 -21 -136 -4 -7 7 -12 45 -12 99 0 63 -4 90 -14 99 -22 17 -376 11 -445
-8 -45 -13 -51 -18 -51 -41 0 -31 16 -51 41 -51 41 0 32 -32 -27 -96 -16 -18
-33 -39 -39 -47 -25 -37 -128 -167 -136 -173 -5 -3 -23 -6 -39 -6 -16 -1 -27
-5 -24 -10 6 -10 -10 -11 -20 -1 -12 12 -159 10 -191 -2 -16 -7 -49 -18 -73
-24 -24 -7 -42 -15 -40 -19 2 -4 12 -24 23 -44 l19 -38 1067 0 c1059 0 1068 0
1074 20 3 11 15 20 25 20 10 0 21 7 24 16 8 21 8 2018 0 2077 -5 37 -11 47
-28 49 -11 2 -25 13 -31 25 -11 25 -23 32 -42 26z m-535 -475 c7 -7 9 -36 5
-88 -9 -123 -13 -120 178 -120 91 0 169 -4 180 -10 15 -9 19 -22 19 -71 0 -55
-2 -60 -26 -69 -14 -6 -92 -10 -174 -10 -82 0 -156 -3 -165 -6 -13 -6 -16 -22
-14 -106 1 -76 -2 -102 -12 -109 -23 -15 -135 -11 -148 5 -9 10 -12 87 -11
273 1 150 -3 272 -8 291 l-11 32 88 0 c52 0 92 -5 99 -12z m-32 -804 c32 -8
43 -43 37 -117 -8 -98 -10 -97 176 -97 189 0 201 -5 201 -81 0 -84 -11 -89
-195 -89 -153 0 -155 0 -171 -24 -10 -17 -15 -44 -14 -83 2 -79 2 -79 -16 -97
-10 -11 -34 -16 -69 -16 -89 0 -86 -10 -83 307 3 258 4 275 22 289 20 14 74
18 112 8z"/>
<path d="M1130 1815 c-11 -13 -3 -15 65 -15 68 0 76 2 65 15 -8 10 -30 15 -65
15 -35 0 -57 -5 -65 -15z"/>
<path d="M1059 1753 c-6 -70 -2 -147 9 -150 9 -4 12 16 12 76 0 47 -4 81 -10
81 -5 0 -10 -3 -11 -7z"/>
<path d="M190 1381 c-21 -6 -25 -13 -23 -40 1 -37 38 -82 59 -74 8 3 14 1 14
-3 0 -5 62 -9 137 -8 76 0 144 -1 151 -4 9 -3 12 -79 12 -332 0 -209 4 -331
10 -335 7 -4 10 105 10 319 0 305 1 330 21 391 32 96 35 95 -185 94 -99 -1
-192 -4 -206 -8z"/>
<path d="M774 1379 c-4 -7 -7 -150 -6 -318 2 -302 2 -305 23 -313 13 -5 31 -3
46 4 l25 13 -1 238 -2 237 23 9 c26 9 150 7 167 -3 6 -4 11 -26 11 -49 0 -31
3 -38 10 -27 5 8 10 29 10 46 0 17 7 48 16 69 8 20 14 51 12 69 l-3 31 -162 3
c-116 2 -164 -1 -169 -9z"/>
<path d="M2 30 c0 -19 2 -27 5 -17 2 9 2 25 0 35 -3 9 -5 1 -5 -18z"/>
</g>
</svg>
