<?xml version="1.0" standalone="no"?>
<!DOCTYPE svg PUBLIC "-//W3C//DTD SVG 20010904//EN"
 "http://www.w3.org/TR/2001/REC-SVG-20010904/DTD/svg10.dtd">
<svg version="1.0" xmlns="http://www.w3.org/2000/svg"
 width="433.000000pt" height="577.000000pt" viewBox="0 0 433.000000 577.000000"
 preserveAspectRatio="xMidYMid meet">

<g transform="translate(0.000000,577.000000) scale(0.100000,-0.100000)"
fill="#000000" stroke="none">
<path d="M2053 4281 c-34 -10 -68 -23 -75 -28 -7 -6 -37 -13 -67 -16 -60 -7
-133 -45 -158 -84 -9 -14 -17 -41 -17 -60 0 -30 -4 -35 -28 -40 -28 -6 -37
-26 -17 -39 8 -5 4 -12 -11 -24 -26 -20 -42 -111 -44 -260 -1 -52 -7 -111 -14
-131 -14 -40 -12 -195 1 -176 5 7 6 1 2 -13 -19 -71 -19 -70 14 -83 28 -10 31
-15 31 -55 0 -71 28 -162 71 -228 45 -70 57 -130 40 -201 -22 -85 -73 -122
-275 -195 -61 -22 -124 -44 -141 -49 -74 -23 -150 -75 -193 -131 -38 -51 -45
-68 -57 -145 -19 -119 -31 -320 -34 -543 -2 -166 -18 -363 -37 -460 -4 -19
-19 -52 -33 -74 -22 -33 -26 -51 -27 -120 -1 -44 -6 -93 -12 -108 -7 -18 -8
-29 -1 -33 5 -4 7 -11 3 -16 -3 -6 -6 -33 -6 -60 1 -37 -4 -55 -19 -70 -26
-26 -25 -65 2 -80 l22 -11 -5 -375 -5 -375 36 4 c20 3 45 8 56 12 16 6 17 6 5
-3 -12 -9 -10 -11 12 -11 18 0 33 8 44 25 15 24 17 24 29 8 7 -10 11 -21 9
-24 -2 -4 89 -7 201 -8 l205 -1 0 98 c0 133 3 142 50 142 21 0 60 9 86 20 l47
20 -7 -86 c-5 -64 -4 -90 6 -102 10 -12 10 -14 1 -8 -10 5 -13 -2 -13 -28 0
-22 -6 -38 -16 -44 -11 -6 1 -9 39 -11 l54 -1 6 41 c4 34 1 47 -25 84 -16 23
-28 50 -26 60 3 15 5 15 30 -4 14 -12 29 -21 34 -21 9 0 -3 116 -15 139 -6 10
-12 52 -15 95 -3 43 -8 82 -11 87 -4 5 -1 9 5 9 7 0 9 7 6 16 -4 10 1 25 10
35 12 13 13 22 5 36 -6 10 -11 14 -11 9 0 -5 -9 -1 -20 9 -19 18 -20 17 -20
-3 0 -12 -3 -22 -8 -22 -4 0 -6 -18 -4 -39 4 -37 1 -41 -40 -67 -33 -21 -39
-29 -25 -32 10 -2 25 2 33 9 20 16 22 12 24 -46 3 -76 1 -97 -8 -91 -5 3 -19
-4 -31 -15 -15 -15 -33 -19 -64 -18 -24 2 -49 -1 -56 -6 -11 -6 -12 24 -6 166
4 96 11 208 16 249 5 41 13 134 19 205 14 174 14 172 52 180 46 9 88 26 88 36
0 4 14 17 31 30 38 26 55 15 39 -26 -14 -37 -6 -62 15 -45 12 10 16 9 21 -3 4
-12 24 -16 41 -8 0 1 -4 25 -11 55 -8 31 -9 60 -5 68 10 15 10 112 0 148 -4
14 -15 26 -24 28 -13 3 -17 -4 -17 -27 0 -17 5 -31 10 -31 6 0 10 -4 10 -10 0
-5 -6 -10 -14 -10 -9 0 -12 -7 -9 -20 3 -11 9 -17 14 -14 5 3 9 -2 9 -10 0 -9
-7 -16 -15 -16 -8 0 -15 -4 -15 -10 0 -5 7 -10 16 -10 9 0 14 -6 11 -12 -2 -7
-9 -12 -15 -11 -19 4 -109 -27 -122 -42 -16 -19 -69 -20 -76 -1 -3 8 0 74 6
147 6 74 15 188 20 254 6 66 19 190 30 275 11 85 25 195 30 245 10 87 41 222
63 277 8 19 21 28 46 33 44 8 86 30 103 52 7 10 31 24 53 32 22 8 46 16 54 19
20 8 -46 -85 -69 -98 -11 -6 -20 -8 -20 -5 0 4 -17 -7 -37 -23 -21 -16 -48
-34 -60 -41 -23 -11 -31 -31 -14 -31 4 0 25 11 45 25 20 14 40 25 44 25 4 0 5
-21 3 -47 -3 -42 -2 -46 12 -34 12 9 14 19 7 36 -7 18 -3 28 18 48 15 14 45
55 67 91 22 36 45 66 52 66 6 0 15 5 19 12 5 8 0 9 -17 3 -159 -51 -259 -66
-259 -40 0 10 10 15 31 15 19 0 37 7 45 18 11 14 16 15 33 4 19 -11 21 -10 21
12 0 24 2 24 70 22 39 -2 72 -1 74 3 2 3 5 35 7 71 2 36 7 73 11 82 5 10 43
43 84 74 42 31 102 80 133 110 51 50 57 53 68 37 7 -9 13 -21 13 -27 0 -5 2
-7 5 -4 3 3 -6 32 -21 64 -24 52 -26 64 -17 110 7 42 7 51 -4 47 -7 -3 -12
-12 -11 -21 2 -9 -15 -24 -42 -39 -25 -13 -59 -32 -77 -43 -29 -17 -150 -54
-138 -42 3 3 -14 14 -37 24 -27 12 -44 15 -46 9 -5 -16 -22 -13 -22 3 0 19
-32 30 -42 14 -6 -11 -8 -10 -8 0 0 21 -23 37 -55 40 -30 2 -53 17 -43 27 5 6
35 7 106 5 18 -1 39 3 46 9 7 6 16 7 20 3 4 -4 6 0 4 8 -2 8 -6 18 -11 21 -12
9 34 27 86 34 36 5 47 10 45 22 -4 21 -96 54 -140 51 -21 -2 -38 -1 -38 3 0 3
-12 11 -27 18 -27 12 -27 13 -8 27 11 8 30 12 43 9 28 -7 80 24 60 36 -9 6 -3
9 17 9 21 0 26 -3 16 -9 -11 -7 -10 -11 5 -19 11 -5 25 -7 32 -5 20 8 14 29
-14 43 -20 11 -32 12 -55 3 -36 -14 -55 -9 -91 25 -36 33 -35 54 5 99 46 52
76 173 52 209 -8 13 -30 31 -48 40 -28 15 -83 52 -111 75 -10 9 42 75 56 71 4
-1 8 1 9 5 0 5 2 19 4 33 2 14 6 38 8 54 2 18 11 32 22 37 31 12 93 10 115 -3
15 -9 30 -9 70 1 38 10 54 10 64 2 8 -7 25 -9 39 -6 14 4 28 2 32 -5 4 -6 16
-8 27 -4 16 5 20 3 15 -8 -3 -9 6 -21 26 -33 56 -32 96 -83 102 -129 29 -241
39 -417 25 -451 -13 -31 -70 -226 -70 -235 2 -21 36 71 70 186 42 144 61 174
118 190 16 4 22 14 22 34 0 15 16 54 35 86 19 32 35 65 35 75 0 9 7 33 15 52
20 48 19 140 -1 180 -9 18 -31 50 -48 72 -17 21 -31 42 -31 46 0 4 -3 10 -7
14 -4 4 -5 21 -2 39 4 24 3 27 -5 16 -6 -8 -11 -10 -11 -5 0 6 5 16 10 21 14
14 -51 66 -123 99 -31 14 -58 25 -62 25 -3 0 -39 16 -79 35 -66 31 -83 35
-153 34 -43 0 -106 -8 -140 -18z m-163 -621 c12 -8 11 -10 -7 -10 -13 0 -23 5
-23 10 0 13 11 13 30 0z m45 -80 c3 -5 -1 -10 -10 -10 -9 0 -13 5 -10 10 3 6
8 10 10 10 2 0 7 -4 10 -10z m-111 -65 c27 -8 62 -15 78 -15 15 0 28 -2 28 -4
0 -14 -43 -97 -54 -103 -17 -11 -25 -46 -15 -65 5 -9 3 -22 -5 -33 -13 -18
-15 -18 -30 -2 -9 9 -23 14 -31 11 -22 -9 -53 13 -70 50 -18 38 -21 75 -10
126 12 54 28 59 109 35z m110 -157 c-7 -11 -32 -10 -39 2 -4 6 -1 17 5 26 11
12 14 12 25 -3 7 -10 11 -21 9 -25z m53 -194 c-3 -3 -12 -4 -19 -1 -8 3 -5 6
6 6 11 1 17 -2 13 -5z m77 -3 c7 -11 -31 -22 -50 -14 -8 3 -14 9 -14 14 0 12
57 12 64 0z m241 -321 c-10 -11 -23 -20 -29 -20 -6 1 0 10 13 20 30 26 39 26
16 0z m-105 -59 c0 -5 -11 -11 -25 -13 -24 -5 -32 2 -18 15 9 10 43 8 43 -2z
m-620 -187 c0 -10 6 -14 15 -10 8 3 15 1 15 -5 0 -5 11 -2 25 7 l25 16 0 -48
0 -49 20 25 19 25 -8 -35 c-16 -61 -20 -110 -10 -110 5 0 12 18 15 40 8 46 28
70 38 44 4 -10 9 -45 11 -78 3 -43 2 -54 -4 -36 -5 14 -10 45 -11 70 -1 38 -3
41 -10 22 -5 -12 -7 -28 -4 -35 2 -7 -7 -19 -21 -27 -18 -10 -25 -22 -26 -44
0 -17 -2 -44 -4 -61 -1 -16 -6 -105 -10 -198 -10 -205 -19 -218 -25 -32 -2 70
-3 76 -11 45 -5 -19 -12 -78 -15 -130 -5 -88 -20 -216 -44 -365 -5 -33 -12
-107 -16 -165 -4 -58 -13 -120 -21 -137 -7 -18 -10 -33 -6 -33 4 0 2 -5 -3
-10 -7 -7 -6 -35 2 -88 6 -42 9 -81 6 -86 -3 -5 -5 -61 -4 -125 1 -129 -12
-221 -40 -266 -10 -16 -18 -42 -18 -57 0 -15 -4 -29 -10 -33 -5 -3 -7 -39 -5
-83 3 -42 6 -90 6 -107 1 -16 8 -63 16 -104 9 -50 10 -77 3 -86 -5 -6 -7 -14
-4 -17 3 -3 -7 -8 -21 -12 -27 -7 -35 -26 -10 -26 17 0 20 -16 5 -25 -15 -9
-60 6 -60 21 0 7 8 18 18 23 16 10 15 10 -3 11 -17 0 -17 2 -5 10 8 5 11 10 5
10 -5 0 -10 24 -10 53 0 31 -6 59 -15 70 -17 22 -17 77 1 197 12 83 5 255 -9
233 -4 -5 -14 -12 -23 -15 -11 -4 -15 -18 -13 -49 1 -24 -4 -55 -12 -70 -7
-15 -10 -30 -6 -34 4 -5 2 -5 -5 -1 -8 4 -11 22 -8 49 3 23 7 103 11 177 3 74
9 149 14 165 5 17 11 201 14 410 l5 380 -23 -28 c-12 -15 -27 -48 -34 -73 -7
-26 -15 -44 -18 -42 -8 8 -16 57 -19 118 -1 30 -5 63 -9 73 -14 40 -15 49 -7
91 5 28 4 49 -2 55 -6 6 0 29 17 66 31 67 30 65 11 65 -8 0 -15 -7 -15 -15 0
-8 -4 -15 -9 -15 -5 0 -12 -13 -16 -30 -4 -16 -11 -32 -15 -35 -15 -9 26 100
82 220 63 136 99 225 90 225 -15 0 -127 -137 -160 -196 -18 -32 -24 5 -12 78
10 66 8 90 -6 75 -4 -3 -10 -21 -15 -39 -7 -27 -8 -24 -4 17 5 51 29 96 56
103 8 2 10 0 4 -5 -14 -11 -19 -63 -6 -63 5 0 8 -18 7 -40 -2 -22 -2 -40 0
-40 2 0 23 30 47 68 58 89 103 136 123 128 9 -3 24 -6 33 -6 19 0 24 -28 8
-47 -5 -7 -7 -13 -3 -13 7 0 -23 -62 -34 -70 -3 -3 -17 -27 -30 -55 -13 -27
-35 -68 -49 -90 -14 -22 -24 -45 -23 -51 1 -5 -8 -21 -20 -34 -12 -13 -15 -21
-7 -18 14 4 46 51 199 293 47 74 88 135 93 135 4 0 7 -7 7 -16z m300 -98 c0
-3 -4 -8 -10 -11 -5 -3 -10 -1 -10 4 0 6 5 11 10 11 6 0 10 -2 10 -4z m-70
-94 c0 -7 -4 -10 -10 -7 -5 3 -10 16 -10 28 0 18 2 19 10 7 5 -8 10 -21 10
-28z m94 7 c-7 -12 -66 -39 -84 -39 -23 0 11 39 37 43 50 7 54 7 47 -4z m-730
-444 c-4 -8 -8 -15 -10 -15 -2 0 -4 7 -4 15 0 8 4 15 10 15 5 0 7 -7 4 -15z
m126 -1696 c17 -30 11 -34 -15 -9 -14 13 -25 27 -25 31 0 14 30 -2 40 -22z
m13 -106 c-13 -2 -33 -2 -45 0 -13 2 -3 4 22 4 25 0 35 -2 23 -4z m117 -17 c0
-3 -4 -8 -10 -11 -5 -3 -10 -1 -10 4 0 6 5 11 10 11 6 0 10 -2 10 -4z m17 -98
c-2 -19 -6 -24 -20 -20 -25 6 -31 26 -17 51 9 18 13 19 25 8 7 -8 12 -25 12
-39z m-333 7 c-4 -8 -8 -15 -10 -15 -2 0 -4 7 -4 15 0 8 4 15 10 15 5 0 7 -7
4 -15z m206 -15 c0 -5 -5 -10 -11 -10 -5 0 -7 5 -4 10 3 6 8 10 11 10 2 0 4
-4 4 -10z m450 -10 c0 -11 -4 -20 -9 -20 -5 0 -11 9 -14 20 -3 13 0 20 9 20 8
0 14 -9 14 -20z"/>
<path d="M1321 954 c0 -11 3 -14 6 -6 3 7 2 16 -1 19 -3 4 -6 -2 -5 -13z"/>
<path d="M2275 3690 c-11 -5 -38 -9 -60 -9 -22 -1 -50 -8 -62 -16 -26 -18 -34
-70 -17 -110 7 -16 13 -25 14 -20 0 6 9 -5 20 -22 15 -26 27 -33 50 -33 16 0
30 5 30 11 0 7 23 8 70 3 61 -6 70 -4 70 10 0 9 -5 16 -11 16 -5 0 -8 4 -4 9
8 14 -44 51 -92 64 -47 12 -54 22 -23 32 32 10 101 -5 143 -32 l40 -25 -7 29
c-4 15 -24 45 -44 66 -37 38 -72 46 -117 27z m-55 -150 c0 -5 -2 -10 -4 -10
-3 0 -8 5 -11 10 -3 6 -1 10 4 10 6 0 11 -4 11 -10z m85 -10 c3 -5 -1 -10 -10
-10 -9 0 -13 5 -10 10 3 6 8 10 10 10 2 0 7 -4 10 -10z"/>
<path d="M2527 3383 c-4 -3 -7 -11 -7 -17 0 -6 5 -5 12 2 6 6 9 14 7 17 -3 3
-9 2 -12 -2z"/>
<path d="M2450 2833 c5 -12 15 -25 20 -28 22 -13 9 -52 -30 -90 -25 -24 -36
-43 -31 -48 6 -6 -6 -23 -31 -44 -25 -20 -44 -30 -48 -24 -8 14 -71 -29 -94
-63 -19 -30 -15 -32 21 -9 24 16 26 16 39 -1 7 -10 10 -25 7 -34 -3 -13 -1
-13 11 2 9 11 16 26 16 33 0 27 50 62 79 57 31 -7 67 26 57 51 -5 13 -1 15 17
10 35 -11 38 -19 27 -71 -30 -148 -36 -182 -34 -214 0 -19 2 -60 3 -90 l2 -55
15 55 c8 30 19 82 24 115 16 115 32 190 45 203 10 11 30 4 108 -40 81 -44 96
-56 92 -73 -3 -11 -2 -14 1 -7 9 20 28 14 72 -24 85 -73 85 -73 83 -283 -1
-102 -6 -269 -11 -371 -5 -102 -10 -251 -11 -332 0 -82 -4 -148 -8 -148 -14 0
-31 25 -31 46 0 13 -4 26 -10 29 -5 3 -10 24 -10 46 0 22 -7 56 -16 77 -10 20
-18 64 -20 97 -1 33 -7 94 -13 135 -17 125 -9 304 18 378 13 35 20 66 17 69
-3 4 -6 0 -6 -8 -1 -8 -12 -36 -25 -64 l-25 -50 3 42 c1 23 -1 39 -5 37 -10
-6 -24 -105 -27 -183 -1 -37 -3 -42 -16 -31 -16 13 -18 26 -35 173 -5 54 -17
111 -24 125 -8 15 -17 50 -21 77 -8 62 -25 118 -33 111 -3 -4 -5 -30 -3 -59 2
-37 -2 -57 -12 -65 -11 -10 -12 -23 -6 -60 14 -76 48 -172 75 -211 13 -19 24
-48 24 -64 0 -23 -5 -29 -30 -33 -37 -8 -59 -31 -37 -40 10 -3 28 -46 47 -107
17 -56 35 -110 40 -119 7 -13 7 -18 -2 -18 -10 0 -10 -2 1 -9 10 -6 10 -10 1
-16 -6 -4 -27 9 -50 32 -22 21 -51 49 -66 63 -14 14 -54 53 -87 88 -60 61 -87
76 -87 48 0 -7 17 -35 38 -62 36 -46 62 -98 78 -154 7 -26 76 -100 94 -100 6
0 20 -16 31 -35 12 -19 24 -35 27 -35 4 0 8 -23 8 -51 1 -41 7 -57 30 -82 49
-54 68 -101 56 -136 -9 -26 -8 -33 8 -44 10 -7 24 -37 31 -69 7 -31 18 -54 24
-52 20 8 55 -78 55 -134 0 -33 7 -67 20 -93 18 -34 20 -50 14 -102 -4 -34 -7
-77 -7 -95 0 -27 -8 -42 -40 -73 -23 -21 -45 -39 -50 -39 -4 0 -23 -11 -40
-24 -18 -14 -53 -34 -80 -45 -26 -11 -47 -25 -47 -31 0 -14 13 -13 35 4 10 7
26 11 36 9 9 -3 20 0 23 5 3 6 15 8 26 5 11 -3 30 4 46 16 15 12 30 21 34 21
10 0 21 -64 21 -114 -1 -28 5 -43 19 -53 27 -19 26 -59 -2 -75 -26 -14 -104
-41 -165 -57 -23 -6 -64 -29 -91 -51 -32 -24 -57 -37 -69 -34 -12 3 -33 -7
-58 -30 l-40 -35 40 -1 c41 0 150 47 150 64 0 16 57 44 100 50 22 3 54 8 72
12 28 5 33 3 38 -18 3 -13 2 -36 -4 -50 -16 -42 11 -58 97 -58 l72 0 69 68
c38 37 70 77 72 88 3 13 14 20 34 22 17 2 53 10 81 17 67 17 123 7 97 -19 -4
-3 -8 -14 -9 -24 -2 -9 -8 -18 -13 -20 -6 -2 -11 -14 -11 -27 0 -12 -7 -28
-15 -35 -8 -7 -21 -25 -29 -41 l-14 -29 32 0 c31 0 34 3 83 108 71 149 70 146
31 138 -18 -3 -78 -10 -133 -15 -80 -7 -105 -6 -127 5 -15 8 -34 14 -43 14
-35 0 -71 28 -70 54 2 34 5 36 51 40 40 3 41 5 30 42 -5 17 -1 23 16 28 20 6
21 7 6 16 -15 9 -15 13 -3 37 10 20 11 31 3 40 -8 10 1 13 45 13 31 0 59 -5
62 -10 3 -6 16 -8 28 -5 12 3 74 10 137 15 203 19 222 23 231 47 5 15 3 25 -7
34 -8 6 -16 10 -17 8 -2 -2 -11 -17 -21 -32 -10 -16 -23 -27 -29 -24 -7 3 -41
-2 -77 -9 -94 -20 -170 -18 -186 4 -12 16 -14 16 -46 -2 l-33 -19 20 22 20 23
-29 22 c-83 62 -122 120 -124 183 0 17 -5 40 -10 50 -6 10 -8 56 -6 103 5 141
6 303 0 335 -6 33 -12 65 -22 110 -4 17 -8 53 -8 82 -1 49 -9 73 -22 61 -15
-16 -35 -143 -33 -218 2 -100 -5 -156 -26 -208 l-16 -37 -19 25 c-11 14 -20
34 -20 46 0 11 -3 24 -7 28 -4 3 -8 14 -9 22 -1 9 -8 48 -15 87 -13 74 -18
601 -10 919 l4 157 -28 38 c-16 21 -48 57 -73 80 l-44 42 26 32 c14 17 26 34
26 38 0 6 30 11 78 14 22 1 12 11 -51 54 -83 56 -345 173 -388 173 -9 0 -24
10 -33 23 -16 22 -16 22 -6 0z m100 -151 c0 -5 -8 -16 -17 -25 -15 -13 -20
-13 -30 -2 -10 11 -10 16 5 24 21 13 42 14 42 3z m91 -73 c-18 -15 -27 -17
-35 -9 -8 8 -4 17 13 31 18 15 27 17 35 9 8 -8 4 -17 -13 -31z m-81 -11 c0 -6
-6 -5 -15 2 -8 7 -15 14 -15 16 0 2 7 1 15 -2 8 -4 15 -11 15 -16z m150 -28
c0 -5 -7 -10 -16 -10 -8 0 -12 5 -9 10 3 6 10 10 16 10 5 0 9 -4 9 -10z m-51
-440 c0 -23 -1 -23 -9 -5 -5 11 -8 40 -8 65 l0 45 9 -40 c4 -22 8 -51 8 -65z"/>
<path d="M2190 2529 c-45 -28 -45 -28 -34 -39 7 -7 22 2 44 25 39 41 38 43
-10 14z"/>
<path d="M2397 2503 c-4 -3 -7 -20 -6 -37 l1 -31 9 34 c10 33 8 47 -4 34z"/>
<path d="M2720 2425 c-7 -9 -8 -15 -2 -15 5 0 12 7 16 15 3 8 4 15 2 15 -2 0
-9 -7 -16 -15z"/>
<path d="M2866 2284 c-4 -9 -4 -19 -1 -22 2 -3 7 3 11 12 4 9 4 19 1 22 -2 3
-7 -3 -11 -12z"/>
<path d="M2877 2180 c3 -30 7 -57 9 -59 8 -9 2 75 -6 94 -5 12 -6 -1 -3 -35z"/>
<path d="M2457 2113 c-15 -15 -6 -44 18 -53 25 -9 40 -38 75 -136 37 -105 90
-197 105 -182 3 3 -12 43 -33 89 -22 46 -45 102 -52 123 -24 74 -61 146 -76
146 -8 0 -14 5 -14 10 0 11 -13 13 -23 3z"/>
<path d="M2317 2003 c-20 -19 5 -307 26 -300 13 4 10 169 -5 222 -5 22 -11 50
-12 63 0 12 -1 22 -2 22 0 0 -4 -3 -7 -7z"/>
<path d="M1896 1981 c-3 -4 -1 -13 3 -19 9 -15 44 -5 38 11 -4 12 -35 18 -41
8z"/>
<path d="M1886 1884 c-3 -9 -6 -29 -6 -46 0 -44 25 -20 28 27 3 36 -11 48 -22
19z"/>
<path d="M1860 1763 c-1 -76 -11 -209 -18 -243 -6 -25 -14 -36 -32 -40 -17 -4
-21 -8 -12 -14 6 -4 17 -4 22 -1 6 3 10 -3 10 -14 0 -11 4 -22 9 -25 5 -3 7
-15 4 -26 -4 -14 0 -20 11 -20 9 0 18 6 21 13 8 26 11 227 3 241 -5 10 -5 16
0 16 18 0 21 29 6 45 -14 13 -14 17 1 31 9 9 13 21 10 28 -3 6 -8 19 -11 29
-11 30 -24 19 -24 -20z"/>
<path d="M2081 1715 c-2 -47 -14 -58 -52 -51 l-34 7 31 -16 c24 -13 33 -26 42
-63 6 -26 14 -56 18 -66 6 -17 4 -18 -19 -12 -16 4 -27 2 -27 -4 0 -5 7 -10
15 -10 19 0 32 -26 46 -89 9 -45 156 -349 193 -403 51 -72 163 -188 182 -188
18 0 18 24 -1 40 -8 7 -15 25 -15 41 0 19 -15 45 -50 85 -55 62 -120 156 -120
172 0 6 -4 12 -8 14 -17 7 -93 147 -97 178 -2 22 -29 88 -35 85 -4 -2 -7 2 -7
9 0 9 12 13 34 12 36 -1 45 13 13 21 -20 5 -78 95 -85 133 -3 17 0 19 23 14
15 -4 37 -11 50 -15 13 -5 22 -5 22 1 0 6 -4 10 -8 10 -4 0 -9 16 -10 35 -3
39 -18 85 -28 85 -3 0 -3 -20 0 -44 5 -28 3 -47 -4 -51 -17 -11 -47 22 -58 63
-10 36 -10 37 -11 7z"/>
<path d="M1975 1605 c-4 -31 -5 -58 -3 -61 3 -2 8 21 12 52 4 31 5 59 2 61 -2
3 -8 -21 -11 -52z"/>
<path d="M2295 1575 c17 -8 39 -14 50 -14 l20 0 -20 8 c-11 4 -33 11 -50 14
l-30 6 30 -14z"/>
<path d="M2485 1550 c4 -6 29 -10 57 -10 64 0 60 5 -10 13 -32 4 -50 2 -47 -3z"/>
<path d="M2263 1510 c-9 -25 -9 -33 4 -46 12 -11 13 -18 5 -23 -9 -5 -8 -12 3
-27 15 -19 15 -19 8 1 -6 19 -5 19 13 3 26 -22 51 -9 35 18 -10 18 -10 18 -11
-1 -2 -33 -23 23 -24 64 -1 44 -18 50 -33 11z"/>
<path d="M2340 1326 c0 -2 7 -9 15 -16 9 -7 15 -8 15 -2 0 5 -7 12 -15 16 -8
3 -15 4 -15 2z"/>
<path d="M2025 1157 c-5 -12 0 -32 14 -57 12 -21 32 -69 45 -107 13 -37 33
-95 45 -127 12 -33 21 -72 21 -88 0 -28 2 -29 31 -23 22 5 29 4 25 -4 -5 -7
-1 -9 8 -5 25 10 18 51 -14 88 -18 20 -33 50 -35 71 -7 48 -50 140 -91 190
-18 22 -32 43 -32 48 -1 22 -10 30 -17 14z"/>
<path d="M1785 1080 c3 -5 8 -10 11 -10 2 0 4 5 4 10 0 6 -5 10 -11 10 -5 0
-7 -4 -4 -10z"/>
<path d="M1805 993 c1 -43 -14 -71 -47 -90 -17 -9 -19 -12 -6 -13 12 0 18 -14
23 -60 4 -33 11 -60 16 -60 5 0 9 -7 9 -15 0 -8 -4 -15 -10 -15 -16 0 -11 -46
7 -61 9 -8 24 -27 35 -44 10 -17 18 -24 19 -15 3 44 -4 117 -17 187 -24 124
-25 143 -14 143 6 0 8 6 4 13 -6 10 -4 10 7 0 19 -18 29 -16 29 7 0 19 -32 60
-48 60 -4 0 -7 -17 -7 -37z"/>
<path d="M2257 833 c-8 -13 27 -78 41 -78 8 0 19 -8 26 -17 7 -10 19 -18 25
-18 7 0 9 -4 6 -10 -5 -9 14 -15 37 -11 4 0 15 -10 25 -22 10 -13 27 -26 38
-31 16 -6 18 -5 8 5 -21 21 -15 29 21 29 21 0 36 6 40 15 3 9 0 15 -9 15 -8 0
-15 8 -15 19 0 15 -10 19 -51 23 -38 4 -65 15 -110 47 -61 42 -74 47 -82 34z"/>
<path d="M1772 659 c2 -6 8 -10 13 -10 5 0 11 4 13 10 2 6 -4 11 -13 11 -9 0
-15 -5 -13 -11z"/>
<path d="M2506 620 c29 -43 44 -51 44 -22 0 26 -24 55 -49 59 -21 3 -21 2 5
-37z"/>
<path d="M2250 495 c0 -15 68 -108 112 -153 46 -46 112 -81 127 -67 2 3 -1 5
-8 5 -7 0 -10 4 -7 8 3 5 -20 31 -51 58 -66 57 -77 68 -121 117 -28 32 -52 47
-52 32z"/>
<path d="M2517 236 c18 -24 69 -40 79 -25 7 11 -51 49 -76 49 -20 0 -21 -1 -3
-24z"/>
<path d="M1999 173 c-2 -70 -2 -75 6 -106 l8 -29 -44 5 c-24 2 -36 2 -26 0 9
-2 14 -9 11 -15 -4 -7 -2 -8 5 -4 13 9 53 -2 47 -13 -3 -4 26 -8 64 -9 60 -2
69 -1 64 13 -4 9 -9 13 -12 10 -10 -10 -42 28 -42 51 0 13 -8 28 -17 33 -10 6
-12 11 -5 11 13 0 12 21 -1 31 -5 4 -10 18 -10 32 -1 14 -5 23 -9 21 -4 -2 -9
0 -13 6 -14 23 -25 7 -26 -37z"/>
<path d="M1852 30 c0 -19 2 -27 5 -17 2 9 2 25 0 35 -3 9 -5 1 -5 -18z"/>
</g>
</svg>
